<svg width="453" height="77" viewBox="0 0 453 77" fill="none" xmlns="http://www.w3.org/2000/svg">
<path d="M35.1658 46.104V44.604H33.9738L33.7045 45.7652L35.1658 46.104ZM44.5098 46.104L45.9937 46.3229L46.2473 44.604H44.5098V46.104ZM37.5338 58.776L36.5722 57.6247L36.566 57.63L37.5338 58.776ZM8.47775 57.624L7.41708 58.6847L7.42272 58.6903L8.47775 57.624ZM8.47775 27.48L9.53841 28.5407V28.5407L8.47775 27.48ZM37.4698 26.264L36.502 27.4101L36.5082 27.4153L37.4698 26.264ZM44.5098 38.936V40.436H46.2614L45.9919 38.7052L44.5098 38.936ZM35.1658 38.936L33.7093 39.2948L33.9905 40.436H35.1658V38.936ZM31.0058 32.088L30.0479 33.2423L30.0612 33.2534L30.0747 33.2641L31.0058 32.088ZM14.9418 33.176L16.0318 34.2066L16.0409 34.1967L14.9418 33.176ZM14.9418 51.864L13.8518 52.8945L14.9418 51.864ZM31.0698 52.952L30.1387 51.7759L30.1327 51.7807L30.1267 51.7856L31.0698 52.952ZM35.1658 46.104V47.604H44.5098V46.104V44.604H35.1658V46.104ZM44.5098 46.104L43.0258 45.8851C42.3092 50.742 40.16 54.6283 36.5722 57.6247L37.5338 58.776L38.4953 59.9273C42.6728 56.4383 45.1743 51.8766 45.9937 46.3229L44.5098 46.104ZM37.5338 58.776L36.566 57.63C33.0186 60.6255 28.74 62.14 23.6458 62.14V63.64V65.14C29.3889 65.14 34.3689 63.4118 38.5015 59.922L37.5338 58.776ZM23.6458 63.64V62.14C17.9548 62.14 13.2864 60.2719 9.53278 56.5577L8.47775 57.624L7.42272 58.6903C11.7757 62.9975 17.2194 65.14 23.6458 65.14V63.64ZM8.47775 57.624L9.53841 56.5633C5.82961 52.8545 3.96175 48.2109 3.96175 42.52H2.46175H0.96175C0.96175 48.9464 3.10456 54.3721 7.41709 58.6847L8.47775 57.624ZM2.46175 42.52H3.96175C3.96175 36.875 5.82744 32.2516 9.53841 28.5407L8.47775 27.48L7.41709 26.4193C3.10673 30.7297 0.96175 36.133 0.96175 42.52H2.46175ZM8.47775 27.48L9.53841 28.5407C13.2931 24.7859 17.9597 22.9 23.6458 22.9V21.4V19.9C17.2144 19.9 11.769 22.0674 7.41709 26.4193L8.47775 27.48ZM23.6458 21.4V22.9C28.6941 22.9 32.9523 24.4126 36.502 27.41L37.4698 26.264L38.4375 25.118C34.3072 21.6301 29.3494 19.9 23.6458 19.9V21.4ZM37.4698 26.264L36.5082 27.4153C40.099 30.4142 42.2705 34.305 43.0276 39.1668L44.5098 38.936L45.9919 38.7052C45.1277 33.1563 42.6059 28.5992 38.4313 25.1127L37.4698 26.264ZM44.5098 38.936V37.436H35.1658V38.936V40.436H44.5098V38.936ZM35.1658 38.936L36.6222 38.5772C35.8306 35.3642 34.2864 32.772 31.9368 30.9119L31.0058 32.088L30.0747 33.2641C31.8211 34.6467 33.0502 36.6198 33.7093 39.2948L35.1658 38.936ZM31.0058 32.088L31.9636 30.9337C29.6582 29.0207 26.8546 28.092 23.6458 28.092V29.592V31.092C26.2395 31.092 28.3426 31.8273 30.0479 33.2423L31.0058 32.088ZM23.6458 29.592V28.092C19.6907 28.092 16.3749 29.4282 13.8426 32.1553L14.9418 33.176L16.0409 34.1967C17.9459 32.1452 20.4328 31.092 23.6458 31.092V29.592ZM14.9418 33.176L13.8518 32.1455C11.3183 34.8252 10.1138 38.3363 10.1138 42.52H11.6138H13.1138C13.1138 38.9384 14.1279 36.2202 16.0317 34.2065L14.9418 33.176ZM11.6138 42.52H10.1138C10.1138 46.7037 11.3183 50.2148 13.8518 52.8945L14.9418 51.864L16.0317 50.8335C14.1279 48.8198 13.1138 46.1016 13.1138 42.52H11.6138ZM14.9418 51.864L13.8518 52.8945C16.3864 55.5754 19.6994 56.884 23.6458 56.884V55.384V53.884C20.4241 53.884 17.9344 52.8459 16.0317 50.8335L14.9418 51.864ZM23.6458 55.384V56.884C26.8818 56.884 29.7033 55.9858 32.0128 54.1184L31.0698 52.952L30.1267 51.7856C28.4256 53.1609 26.2977 53.884 23.6458 53.884V55.384ZM31.0698 52.952L32.0008 54.1281C34.356 52.2635 35.8802 49.6635 36.627 46.4428L35.1658 46.104L33.7045 45.7652C33.086 48.4325 31.8795 50.3978 30.1387 51.7759L31.0698 52.952ZM73.2418 63V64.5H74.2341L74.6222 63.5867L73.2418 63ZM63.7698 63L62.3893 63.5867L62.7774 64.5H63.7698V63ZM46.3618 22.04V20.54H44.0944L44.9813 22.6267L46.3618 22.04ZM56.2178 22.04L57.6047 21.4687L57.2222 20.54H56.2178V22.04ZM68.6338 52.184L67.2468 52.7553L68.6338 56.1226L70.0207 52.7553L68.6338 52.184ZM81.0498 22.04V20.54H80.0453L79.6628 21.4687L81.0498 22.04ZM90.6497 22.04L92.0303 22.6267L92.9171 20.54H90.6497V22.04ZM73.2418 63V61.5H63.7698V63V64.5H73.2418V63ZM63.7698 63L65.1502 62.4133L47.7422 21.4533L46.3618 22.04L44.9813 22.6267L62.3893 63.5867L63.7698 63ZM46.3618 22.04V23.54H56.2178V22.04V20.54H46.3618V22.04ZM56.2178 22.04L54.8308 22.6113L67.2468 52.7553L68.6338 52.184L70.0207 51.6127L57.6047 21.4687L56.2178 22.04ZM68.6338 52.184L70.0207 52.7553L82.4367 22.6113L81.0498 22.04L79.6628 21.4687L67.2468 51.6127L68.6338 52.184ZM81.0498 22.04V23.54H90.6497V22.04V20.54H81.0498V22.04ZM90.6497 22.04L89.2693 21.4533L71.8613 62.4133L73.2418 63L74.6222 63.5867L92.0303 22.6267L90.6497 22.04ZM96.2063 63H94.7063V64.5H96.2063V63ZM96.2063 22.04V20.54H94.7063V22.04H96.2063ZM125.518 25.752L124.545 26.8932V26.8932L125.518 25.752ZM125.518 46.552L126.49 47.6945L126.492 47.6933L125.518 46.552ZM105.166 50.2V48.7H103.666V50.2H105.166ZM105.166 63V64.5H106.666V63H105.166ZM118.926 31.576L117.927 32.6949L117.948 32.7136L117.97 32.7316L118.926 31.576ZM105.166 29.976V28.476H103.666V29.976H105.166ZM105.166 42.264H103.666V43.764H105.166V42.264ZM118.926 40.728L119.902 41.8669L119.906 41.8641L118.926 40.728ZM96.2063 63H97.7063V22.04H96.2063H94.7063V63H96.2063ZM96.2063 22.04V23.54H113.358V22.04V20.54H96.2063V22.04ZM113.358 22.04V23.54C118.337 23.54 122 24.7226 124.545 26.8932L125.518 25.752L126.492 24.6107C123.234 21.832 118.79 20.54 113.358 20.54V22.04ZM125.518 25.752L124.545 26.8932C127.056 29.035 128.37 32.0421 128.37 36.12H129.87H131.37C131.37 31.3232 129.783 27.4184 126.492 24.6107L125.518 25.752ZM129.87 36.12H128.37C128.37 40.2458 127.052 43.2719 124.545 45.4108L125.518 46.552L126.492 47.6933C129.787 44.8827 131.37 40.9542 131.37 36.12H129.87ZM125.518 46.552L124.546 45.4095C122.05 47.5335 118.391 48.7 113.358 48.7V50.2V51.7C118.822 51.7 123.27 50.4345 126.49 47.6945L125.518 46.552ZM113.358 50.2V48.7H105.166V50.2V51.7H113.358V50.2ZM105.166 50.2H103.666V63H105.166H106.666V50.2H105.166ZM105.166 63V61.5H96.2063V63V64.5H105.166V63ZM120.782 36.12H122.282C122.282 33.7888 121.548 31.7985 119.883 30.4204L118.926 31.576L117.97 32.7316C118.779 33.4015 119.282 34.4405 119.282 36.12H120.782ZM118.926 31.576L119.925 30.4571C118.352 29.0523 116.161 28.476 113.614 28.476V29.976V31.476C115.761 31.476 117.111 31.9664 117.927 32.6949L118.926 31.576ZM113.614 29.976V28.476H105.166V29.976V31.476H113.614V29.976ZM105.166 29.976H103.666V42.264H105.166H106.666V29.976H105.166ZM105.166 42.264V43.764H113.614V42.264V40.764H105.166V42.264ZM113.614 42.264V43.764C116.149 43.764 118.33 43.215 119.902 41.8669L118.926 40.728L117.95 39.5891C117.133 40.289 115.773 40.764 113.614 40.764V42.264ZM118.926 40.728L119.906 41.8641C121.547 40.4488 122.282 38.4536 122.282 36.12H120.782H119.282C119.282 37.797 118.78 38.8739 117.947 39.5919L118.926 40.728Z" fill="white"/>
<path d="M174.041 45.72H184.985C184.259 50.968 181.913 55.2773 177.944 58.648C174.019 61.976 169.283 63.64 163.737 63.64C157.593 63.64 152.473 61.6347 148.377 57.624C144.281 53.5707 142.233 48.536 142.233 42.52C142.233 36.5467 144.281 31.5333 148.377 27.48C152.515 23.4267 157.635 21.4 163.737 21.4C169.241 21.4 173.955 23.0853 177.881 26.456C181.849 29.784 184.217 34.072 184.985 39.32H174.041C173.358 36.6747 172.121 34.6267 170.329 33.176C168.537 31.7253 166.339 31 163.737 31C160.537 31 157.934 32.0667 155.929 34.2C153.966 36.2907 152.985 39.064 152.985 42.52C152.985 45.9333 153.966 48.6853 155.929 50.776C157.934 52.8667 160.537 53.912 163.737 53.912C166.382 53.912 168.601 53.208 170.393 51.8C172.227 50.3493 173.443 48.3227 174.041 45.72ZM210.305 21.4C216.534 21.4 221.718 23.4267 225.857 27.48C229.996 31.4907 232.065 36.504 232.065 42.52C232.065 48.536 229.996 53.5707 225.857 57.624C221.718 61.6347 216.534 63.64 210.305 63.64C204.076 63.64 198.892 61.6347 194.753 57.624C190.614 53.5707 188.545 48.536 188.545 42.52C188.545 36.504 190.614 31.4907 194.753 27.48C198.892 23.4267 204.076 21.4 210.305 21.4ZM210.305 53.912C213.59 53.912 216.236 52.8667 218.241 50.776C220.246 48.6853 221.249 45.9333 221.249 42.52C221.249 39.064 220.246 36.2907 218.241 34.2C216.236 32.0667 213.59 31 210.305 31C207.02 31 204.353 32.0667 202.305 34.2C200.3 36.2907 199.297 39.064 199.297 42.52C199.297 45.9333 200.3 48.6853 202.305 50.776C204.353 52.8667 207.02 53.912 210.305 53.912ZM238.288 63V22.04H248.4L266.704 46.104V22.04H276.816V63H266.704L248.4 39.064V63H238.288ZM285.351 63V22.04H295.463L313.767 46.104V22.04H323.879V63H313.767L295.463 39.064V63H285.351ZM332.413 63V22.04H362.621V31.576H342.909V37.784H360.701V46.936H342.909V53.464H362.621V63H332.413ZM399.478 45.72H410.422C409.697 50.968 407.35 55.2773 403.382 58.648C399.457 61.976 394.721 63.64 389.174 63.64C383.03 63.64 377.91 61.6347 373.814 57.624C369.718 53.5707 367.67 48.536 367.67 42.52C367.67 36.5467 369.718 31.5333 373.814 27.48C377.953 23.4267 383.073 21.4 389.174 21.4C394.678 21.4 399.393 23.0853 403.318 26.456C407.286 29.784 409.654 34.072 410.422 39.32H399.478C398.795 36.6747 397.558 34.6267 395.766 33.176C393.974 31.7253 391.777 31 389.174 31C385.974 31 383.371 32.0667 381.366 34.2C379.403 36.2907 378.422 39.064 378.422 42.52C378.422 45.9333 379.403 48.6853 381.366 50.776C383.371 52.8667 385.974 53.912 389.174 53.912C391.819 53.912 394.038 53.208 395.83 51.8C397.665 50.3493 398.881 48.3227 399.478 45.72ZM427.167 31.768H413.535V22.04H451.231V31.768H437.663V63H427.167V31.768Z" fill="white"/>
</svg>
