<svg width="236" height="45" viewBox="0 0 236 45" fill="none" xmlns="http://www.w3.org/2000/svg">
<path d="M13.4342 0C15.0922 0 16.5989 0.202073 18.0064 0.505096V6.06673C16.7501 5.76354 15.293 5.56163 14.138 5.56163C11.3747 5.56163 10.0688 6.67463 10.0688 9.10102V12.375H17.8493V18.4495H10.0688V35.2096H3.18467V18.4495H0V12.375H3.18467V9.30292C3.18467 3.08375 6.60173 0 13.4342 0ZM37.4163 12.375V24.5242C37.4163 27.9784 35.5079 29.7808 32.4426 29.7808C29.4289 29.7808 27.4688 27.9784 27.4688 24.5242V12.375H20.5847V25.2749C20.5847 31.8823 25.308 35.887 32.4426 35.887C39.4261 35.887 44.3005 31.7317 44.3005 25.2749V20.7887L38.5853 12.375H37.4163ZM211.431 45H219.829L236 12.3789H227.604L221.662 24.3657L213.692 12.3789H205.299L217.718 32.3218L211.431 45ZM178.666 28.525C178.112 27.0356 177.83 25.3758 177.83 23.5953C177.83 21.8146 178.114 20.1569 178.666 18.6655C179.367 16.7759 182.172 10.8241 188.805 10.8241C194.694 10.8241 196.738 15.1459 196.738 15.1459V0.530841H197.928L204.138 10.5052V35.2077H197.455L196.857 32.2368L196.272 32.9636C195.617 33.7756 194.665 34.4808 193.441 35.0572C192.212 35.6336 190.687 35.9266 188.914 35.9266C187.343 35.9266 185.863 35.6158 184.513 35.0018C183.16 34.3878 181.975 33.5202 180.99 32.4229C180.003 31.3237 179.222 30.0125 178.666 28.525ZM184.919 23.5953C184.919 24.4766 185.06 25.3006 185.341 26.0413C185.621 26.7861 186.021 27.4396 186.529 27.9823C187.041 28.527 187.67 28.9647 188.402 29.2836C189.135 29.6005 189.96 29.763 190.856 29.763C191.716 29.763 192.523 29.6026 193.254 29.2836C193.984 28.9667 194.621 28.5309 195.148 27.9882C195.677 27.4436 196.088 26.788 196.369 26.0413C196.648 25.3006 196.79 24.4786 196.79 23.5953C196.79 22.7138 196.649 21.8918 196.369 21.1491C196.088 20.4045 195.677 19.7488 195.148 19.2022C194.62 18.6575 193.98 18.2296 193.246 17.9307C192.515 17.6336 191.709 17.481 190.856 17.481C189.965 17.481 189.144 17.6316 188.409 17.9307C187.675 18.2317 187.041 18.6616 186.529 19.2082C186.021 19.7529 185.621 20.4064 185.341 21.1491C185.06 21.8918 184.919 22.7138 184.919 23.5953ZM123.582 35.2096H140.878L144.144 30.4046V29.2044H130.617V22.6307H143.804V16.6908H130.617V10.4102H146.745V4.22657H123.582V35.2096ZM81.3649 24.5242C81.3649 27.9784 79.4566 29.7808 76.3913 29.7808C73.3775 29.7808 71.4175 27.9784 71.4175 24.5242V12.375H55.2697V4.23063H47.9601V26.176L54.0988 35.2116H55.2716V17.9326H64.5373V25.2768C64.5373 31.8841 69.2607 35.889 76.3952 35.889C83.3788 35.889 88.2531 31.7337 88.2531 25.2768V12.377H81.3649V24.5242ZM169.835 11.46H174.709V35.2096H169.728L168.529 32.9675C166.569 34.8353 163.907 35.889 160.842 35.889C154.534 35.889 149.004 30.9275 148.477 24.0567L157.113 11.2816C158.116 11.034 159.832 10.8241 160.898 10.8241C163.963 10.8241 166.567 12.0344 168.527 13.902L169.835 11.46ZM168.329 23.4347C168.329 19.3626 165.515 16.7759 161.848 16.7759C158.13 16.7759 155.367 19.3626 155.367 23.4347C155.367 27.507 158.13 30.0442 161.848 30.0442C165.513 30.0442 168.329 27.507 168.329 23.4347ZM118.608 14.7458C118.608 8.12454 113.986 4.23063 106.198 4.23063H103.876L99.7948 10.2675H106.399C109.615 10.2675 111.474 11.9234 111.474 14.8429C111.474 17.6671 109.615 19.3706 106.399 19.3706H99.5661V12.375H98.3734L92.5329 20.9609V35.2096H99.5661V25.2114H105.947L111.428 35.2096H119.509L112.782 23.9954C116.497 22.3395 118.608 19.0774 118.608 14.7458Z" fill="white"/>
</svg>
