<svg width="788" height="486" viewBox="0 0 788 486" fill="none" xmlns="http://www.w3.org/2000/svg">
<path d="M151.49 225.154C151.577 216.867 152.63 207.504 154.65 197.064C160.277 167.944 170.574 141.19 185.54 116.804C233.72 38.2838 320.71 -6.39618 412.67 0.743824C477.11 5.74382 536.43 35.4738 578.64 84.5238C608.22 118.897 626.84 158.967 634.5 204.734C635.43 210.314 635.74 215.744 636.98 221.334C637.06 221.694 637.144 221.694 637.23 221.334C637.59 219.784 636.97 218.544 636.97 217.004C636.85 163.31 636.83 108.14 636.91 51.4938C636.91 50.9438 636.57 50.0838 636.65 49.6138C636.664 49.5262 636.703 49.4445 636.762 49.3784C636.822 49.3124 636.899 49.2649 636.984 49.2417C637.07 49.2184 637.16 49.2204 637.245 49.2474C637.329 49.2744 637.404 49.3252 637.46 49.3938C640.774 53.3805 643.87 57.3672 646.75 61.3538C680.624 108.274 700.027 160.99 704.96 219.504C704.967 219.604 705.02 219.654 705.12 219.654C705.24 219.654 705.304 219.594 705.31 219.474C705.62 215.554 705.26 211.724 705.26 207.834C705.267 139.86 705.267 72.1605 705.26 4.73382C705.26 3.58716 705.61 3.46716 706.31 4.37382C719.917 21.9205 731.86 40.3905 742.14 59.7838C770.007 112.33 785.064 168.054 787.31 226.954C790.024 298.147 774.574 365.017 740.96 427.564C731.207 445.711 719.67 463.404 706.35 480.644C705.61 481.604 705.24 481.48 705.24 480.274L705.3 266.154C705.3 265.961 705.227 265.931 705.08 266.064C704.967 266.157 704.904 266.277 704.89 266.424C703.244 285.537 699.984 304.207 695.11 322.434C684.11 363.6 665.084 401.16 638.03 435.114C637.264 436.074 636.88 435.94 636.88 434.714C636.84 379.394 636.867 324.064 636.96 268.724C636.96 267.154 637.63 265.704 637.32 264.164C637.3 264.064 637.237 264.017 637.13 264.024H637.12C636.994 264.03 636.93 264.1 636.93 264.234C636.99 265.734 636.27 266.904 636.09 268.414C631.23 310.401 616.904 348.277 593.11 382.044C557.66 432.344 505.02 466.694 444.71 479.904C438.397 481.284 431.847 482.387 425.06 483.214C380.787 488.587 338.53 482.767 298.29 465.754C226.19 435.274 170.96 369.594 155.5 291.964C154.434 286.624 153.484 281.281 152.65 275.934C151.89 271.061 151.527 265.694 151.56 259.834C151.567 259.714 151.507 259.65 151.38 259.644H151.37C151.284 259.644 151.237 259.691 151.23 259.784C151.1 265.224 150.74 270.554 150.74 276.024C150.72 326.804 150.73 378.284 150.77 430.464C150.77 432.211 150.697 433.901 150.55 435.534C150.517 435.98 150.357 436.027 150.07 435.674C116.757 394.107 95.537 346.957 86.4104 294.224C85.257 287.571 84.3237 280.107 83.6104 271.834C83.3104 268.364 82.1304 265.114 82.5504 261.624C82.5704 261.477 82.507 261.4 82.3604 261.394C82.2604 261.387 82.2104 261.431 82.2104 261.524C82.1037 263.324 82.1404 265.067 82.3204 266.754C82.5004 268.394 82.5871 270.057 82.5804 271.744C82.4471 339.497 82.4337 409.277 82.5404 481.084C82.5396 481.144 82.5209 481.202 82.4866 481.251C82.4523 481.301 82.4041 481.338 82.3481 481.36C82.2921 481.381 82.231 481.386 82.1726 481.372C82.1142 481.359 82.0611 481.328 82.0204 481.284C80.8204 479.937 79.6537 478.514 78.5204 477.014C54.0937 444.5 35.2537 409.461 22.0004 371.894C-7.88961 287.124 -7.22962 193.514 23.4104 109.314C36.6571 72.9138 55.4104 38.6538 79.6704 6.53382C80.5104 5.42716 81.3104 4.59716 82.0704 4.04382C82.3837 3.81716 82.5404 3.89716 82.5404 4.28382C82.4337 70.5572 82.4437 135.45 82.5704 198.964C82.5771 203.53 82.6171 208.427 82.6904 213.654C82.717 215.18 82.6171 216.764 82.3904 218.404C82.1304 220.25 82.0604 222.074 82.1804 223.874C82.1871 223.994 82.2504 224.047 82.3704 224.034H82.3804C82.5337 224.02 82.6004 223.937 82.5804 223.784C82.3471 222.031 82.4437 220.367 82.8704 218.794C82.9771 218.374 82.9704 217.957 82.8504 217.544C82.7371 217.15 82.7737 216.764 82.9604 216.384C83.2204 215.857 83.3771 215.277 83.4304 214.644C87.8104 163.094 105.61 113.674 134.26 70.9138C138.514 64.5605 143.777 57.3705 150.05 49.3438C150.284 49.0505 150.42 49.0905 150.46 49.4638C150.654 51.1305 150.75 52.8805 150.75 54.7138C150.737 105.894 150.737 158.394 150.75 212.214C150.75 216.314 150.97 220.627 151.41 225.154C151.457 225.647 151.484 225.647 151.49 225.154ZM513.46 272.974L513.33 287.374C513.33 287.41 513.338 287.445 513.351 287.478C513.365 287.511 513.385 287.541 513.411 287.565C513.436 287.59 513.466 287.608 513.499 287.62C513.531 287.632 513.566 287.637 513.6 287.634C514.12 287.601 514.55 287.384 514.89 286.984C527.31 272.574 530.59 254.064 528.74 235.404C528.713 235.125 528.582 234.866 528.374 234.678C528.165 234.49 527.893 234.385 527.61 234.384L449.42 234.364C449.127 234.364 448.98 234.507 448.98 234.794L449.02 256.684C449.023 256.894 449.108 257.095 449.258 257.243C449.408 257.391 449.61 257.474 449.82 257.474L489.13 257.464C489.904 257.464 490.214 257.844 490.06 258.604C487.667 270.611 480.484 278.131 468.51 281.164C454.24 284.774 439.03 282.244 428.68 271.114C420.16 261.944 417.99 249.044 418.96 236.274C420.19 220.254 429.78 206.444 445.3 202.574C462.09 198.374 480.26 203.884 487.47 220.694C487.545 220.861 487.667 221.002 487.819 221.102C487.972 221.201 488.149 221.254 488.33 221.254L525.33 221.274C525.438 221.275 525.545 221.251 525.643 221.205C525.741 221.159 525.827 221.091 525.896 221.007C525.965 220.923 526.015 220.824 526.041 220.718C526.068 220.612 526.071 220.501 526.05 220.394C524.357 211.574 520.684 203.857 515.03 197.244C513.63 195.617 513.057 195.87 513.31 198.004C513.417 198.89 513.454 199.727 513.42 200.514C513.254 204.647 513.34 208.84 513.68 213.094C513.683 213.141 513.673 213.189 513.653 213.232C513.632 213.274 513.6 213.311 513.562 213.337C513.523 213.364 513.479 213.379 513.433 213.382C513.387 213.385 513.341 213.375 513.3 213.354C513.007 213.207 512.804 212.984 512.69 212.684C505.12 193.054 487.33 179.884 466.99 177.014C446.83 174.164 428.06 178.564 412.56 192.444C406.327 198.03 401.204 205.137 397.19 213.764C396.75 214.697 396.53 214.647 396.53 213.614V199.774C396.53 198.18 396.064 198.027 395.13 199.314C387.957 209.201 383.58 219.004 382 228.724C378.6 249.634 382.93 268.094 395.92 284.914C395.959 284.965 396.01 285.004 396.069 285.029C396.128 285.054 396.192 285.064 396.255 285.057C396.319 285.05 396.379 285.026 396.431 284.989C396.482 284.952 396.524 284.902 396.55 284.844C396.617 284.697 396.65 284.544 396.65 284.384C396.61 279.317 396.534 274.494 396.42 269.914C396.387 268.534 396.664 268.467 397.25 269.714C407.63 291.714 426.96 305.794 451.41 307.174C463.17 307.84 473.917 306.031 483.65 301.744C497.16 295.794 506.02 285.984 512.68 272.784C513.207 271.737 513.467 271.801 513.46 272.974ZM359.17 237.194C359.73 235.194 360.04 235.23 360.1 237.304C360.214 241.037 360.267 244.874 360.26 248.814C360.254 250.674 360.847 250.894 362.04 249.474C367.867 242.52 371.154 234.617 371.9 225.764C372.94 213.394 370.02 201.064 361.77 192.094C360.737 190.974 360.22 191.174 360.22 192.694C360.234 196.647 360.21 200.347 360.15 203.794C360.104 206.6 359.7 206.654 358.94 203.954C358.58 202.68 358.08 201.447 357.44 200.254C349.14 184.884 332.27 178.344 314.96 178.174C299.527 178.014 280.964 177.977 259.27 178.064C259.095 178.064 258.927 178.133 258.804 178.257C258.68 178.381 258.61 178.549 258.61 178.724V304.404C258.61 304.719 258.735 305.022 258.956 305.245C259.177 305.468 259.477 305.594 259.79 305.594L285.31 305.554C286.01 305.554 286.36 305.204 286.36 304.504L286.35 264.384C286.35 264.23 286.411 264.082 286.52 263.974C286.629 263.865 286.777 263.804 286.93 263.804L310.81 263.744C311.188 263.744 311.559 263.847 311.883 264.043C312.207 264.238 312.473 264.519 312.65 264.854L333.97 305.034C334.057 305.197 334.188 305.333 334.348 305.428C334.509 305.523 334.692 305.574 334.88 305.574L374.64 305.554C374.789 305.555 374.935 305.516 375.064 305.441C375.192 305.367 375.299 305.259 375.371 305.129C375.444 304.999 375.48 304.852 375.476 304.704C375.473 304.555 375.429 304.41 375.35 304.284C370.197 295.884 365.48 287.734 361.2 279.834C360.774 279.034 360.507 279.084 360.4 279.984C359.86 284.754 360.27 289.744 360.08 294.064C360.027 295.364 359.714 295.43 359.14 294.264C358.247 292.437 357.3 290.677 356.3 288.984C350.354 278.857 344.584 268.954 338.99 259.274C338.737 258.834 338.844 258.517 339.31 258.324C347.6 254.834 356.56 246.484 359.17 237.194Z" fill="black"/>
<path d="M286.28 203.344C286.28 203.152 286.356 202.968 286.491 202.831C286.625 202.695 286.809 202.616 287 202.614L315.72 202.514C318.096 202.505 320.451 202.936 322.649 203.782C324.847 204.628 326.846 205.872 328.531 207.443C330.216 209.015 331.555 210.882 332.472 212.94C333.388 214.997 333.863 217.204 333.87 219.434L333.89 223.194C333.905 227.697 332.014 232.021 328.633 235.217C325.252 238.412 320.657 240.217 315.86 240.234L287.14 240.334C287.044 240.335 286.948 240.317 286.858 240.281C286.768 240.245 286.687 240.191 286.618 240.124C286.549 240.056 286.494 239.975 286.457 239.886C286.42 239.796 286.4 239.701 286.4 239.604L286.28 203.344Z" fill="black"/>
</svg>
