<svg width="1066" height="154" viewBox="0 0 1066 154" fill="none" xmlns="http://www.w3.org/2000/svg">
<path d="M9.725 126H6.725V129H9.725V126ZM9.725 44.08V41.08H6.725V44.08H9.725ZM68.349 51.504L66.4022 53.7865L68.349 51.504ZM68.349 93.104L70.2929 95.389L70.2958 95.3865L68.349 93.104ZM27.645 100.4V97.4H24.645V100.4H27.645ZM27.645 126V129H30.645V126H27.645ZM55.165 63.152L53.167 65.3898L53.2089 65.4273L53.2523 65.4632L55.165 63.152ZM27.645 59.952V56.952H24.645V59.952H27.645ZM27.645 84.528H24.645V87.528H27.645V84.528ZM55.165 81.456L57.1174 83.7338L57.1238 83.7282L55.165 81.456ZM9.725 126H12.725V44.08H9.725H6.725V126H9.725ZM9.725 44.08V47.08H44.029V44.08V41.08H9.725V44.08ZM44.029 44.08V47.08C53.9868 47.08 61.3124 49.4453 66.4022 53.7865L68.349 51.504L70.2958 49.2215C63.7802 43.6641 54.8925 41.08 44.029 41.08V44.08ZM68.349 51.504L66.4022 53.7865C71.4241 58.0699 74.053 64.0842 74.053 72.24H77.053H80.053C80.053 62.6464 76.8792 54.8367 70.2958 49.2215L68.349 51.504ZM77.053 72.24H74.053C74.053 80.4915 71.4173 86.5438 66.4022 90.8215L68.349 93.104L70.2958 95.3865C76.886 89.7655 80.053 81.9085 80.053 72.24H77.053ZM68.349 93.104L66.4051 90.819C61.4118 95.067 54.0941 97.4 44.029 97.4V100.4V103.4C54.9559 103.4 63.8516 100.869 70.2929 95.389L68.349 93.104ZM44.029 100.4V97.4H27.645V100.4V103.4H44.029V100.4ZM27.645 100.4H24.645V126H27.645H30.645V100.4H27.645ZM27.645 126V123H9.725V126V129H27.645V126ZM58.877 72.24H61.877C61.877 67.5777 60.4081 63.597 57.0777 60.8408L55.165 63.152L53.2523 65.4632C54.8712 66.803 55.877 68.881 55.877 72.24H58.877ZM55.165 63.152L57.163 60.9142C54.0162 58.1045 49.635 56.952 44.541 56.952V59.952V62.952C48.8337 62.952 51.5351 63.9328 53.167 65.3898L55.165 63.152ZM44.541 59.952V56.952H27.645V59.952V62.952H44.541V59.952ZM27.645 59.952H24.645V84.528H27.645H30.645V59.952H27.645ZM27.645 84.528V87.528H44.541V84.528V81.528H27.645V84.528ZM44.541 84.528V87.528C49.6095 87.528 53.9719 86.4299 57.1174 83.7338L55.165 81.456L53.2126 79.1782C51.5795 80.5781 48.8591 81.528 44.541 81.528V84.528ZM55.165 81.456L57.1238 83.7282C60.4074 80.8975 61.877 76.9073 61.877 72.24H58.877H55.877C55.877 75.5941 54.8719 77.7478 53.2062 79.1838L55.165 81.456ZM90.725 126H87.725V129H90.725V126ZM90.725 44.08V41.08H87.725V44.08H90.725ZM108.645 44.08H111.645V41.08H108.645V44.08ZM108.645 109.488H105.645V112.488H108.645V109.488ZM147.813 109.488H150.813V106.488H147.813V109.488ZM147.813 126V129H150.813V126H147.813ZM90.725 126H93.725V44.08H90.725H87.725V126H90.725ZM90.725 44.08V47.08H108.645V44.08V41.08H90.725V44.08ZM108.645 44.08H105.645V109.488H108.645H111.645V44.08H108.645ZM108.645 109.488V112.488H147.813V109.488V106.488H108.645V109.488ZM147.813 109.488H144.813V126H147.813H150.813V109.488H147.813ZM147.813 126V123H90.725V126V129H147.813V126ZM187.614 44.08V41.08H185.629L184.853 42.9066L187.614 44.08ZM206.174 44.08L208.935 42.9066L208.159 41.08H206.174V44.08ZM240.99 126V129H245.525L243.751 124.827L240.99 126ZM221.534 126L218.76 127.142L219.525 129H221.534V126ZM214.366 108.592L217.14 107.45L216.375 105.592H214.366V108.592ZM178.654 108.592V105.592H176.645L175.88 107.45L178.654 108.592ZM171.486 126V129H173.495L174.26 127.142L171.486 126ZM152.798 126L150.037 124.827L148.263 129H152.798V126ZM196.574 65.072L199.35 63.9356L196.59 57.1906L193.802 63.9246L196.574 65.072ZM185.182 92.592L182.41 91.4446L180.693 95.592H185.182V92.592ZM207.838 92.592V95.592H212.307L210.614 91.4556L207.838 92.592ZM187.614 44.08V47.08H206.174V44.08V41.08H187.614V44.08ZM206.174 44.08L203.413 45.2534L238.229 127.173L240.99 126L243.751 124.827L208.935 42.9066L206.174 44.08ZM240.99 126V123H221.534V126V129H240.99V126ZM221.534 126L224.308 124.858L217.14 107.45L214.366 108.592L211.592 109.734L218.76 127.142L221.534 126ZM214.366 108.592V105.592H178.654V108.592V111.592H214.366V108.592ZM178.654 108.592L175.88 107.45L168.712 124.858L171.486 126L174.26 127.142L181.428 109.734L178.654 108.592ZM171.486 126V123H152.798V126V129H171.486V126ZM152.798 126L155.559 127.173L190.375 45.2534L187.614 44.08L184.853 42.9066L150.037 124.827L152.798 126ZM196.574 65.072L193.802 63.9246L182.41 91.4446L185.182 92.592L187.954 93.7394L199.346 66.2194L196.574 65.072ZM185.182 92.592V95.592H207.838V92.592V89.592H185.182V92.592ZM207.838 92.592L210.614 91.4556L199.35 63.9356L196.574 65.072L193.798 66.2084L205.062 93.7284L207.838 92.592ZM252.6 126H249.6V129H252.6V126ZM252.6 44.08V41.08H249.6V44.08H252.6ZM269.88 44.08L272.255 42.2473L271.354 41.08H269.88V44.08ZM310.968 97.328L308.593 99.1607L313.968 106.127V97.328H310.968ZM310.968 44.08V41.08H307.968V44.08H310.968ZM328.248 44.08H331.248V41.08H328.248V44.08ZM328.248 126V129H331.248V126H328.248ZM310.968 126L308.595 127.835L309.496 129H310.968V126ZM269.88 72.88L272.253 71.0445L266.88 64.0981V72.88H269.88ZM269.88 126V129H272.88V126H269.88ZM252.6 126H255.6V44.08H252.6H249.6V126H252.6ZM252.6 44.08V47.08H269.88V44.08V41.08H252.6V44.08ZM269.88 44.08L267.505 45.9127L308.593 99.1607L310.968 97.328L313.343 95.4953L272.255 42.2473L269.88 44.08ZM310.968 97.328H313.968V44.08H310.968H307.968V97.328H310.968ZM310.968 44.08V47.08H328.248V44.08V41.08H310.968V44.08ZM328.248 44.08H325.248V126H328.248H331.248V44.08H328.248ZM328.248 126V123H310.968V126V129H328.248V126ZM310.968 126L313.341 124.165L272.253 71.0445L269.88 72.88L267.507 74.7155L308.595 127.835L310.968 126ZM269.88 72.88H266.88V126H269.88H272.88V72.88H269.88ZM269.88 126V123H252.6V126V129H269.88V126ZM368.979 60.592H371.979V57.592H368.979V60.592ZM340.691 60.592H337.691V63.592H340.691V60.592ZM340.691 44.08V41.08H337.691V44.08H340.691ZM415.059 44.08H418.059V41.08H415.059V44.08ZM415.059 60.592V63.592H418.059V60.592H415.059ZM386.899 60.592V57.592H383.899V60.592H386.899ZM386.899 126V129H389.899V126H386.899ZM368.979 126H365.979V129H368.979V126ZM368.979 60.592V57.592H340.691V60.592V63.592H368.979V60.592ZM340.691 60.592H343.691V44.08H340.691H337.691V60.592H340.691ZM340.691 44.08V47.08H415.059V44.08V41.08H340.691V44.08ZM415.059 44.08H412.059V60.592H415.059H418.059V44.08H415.059ZM415.059 60.592V57.592H386.899V60.592V63.592H415.059V60.592ZM386.899 60.592H383.899V126H386.899H389.899V60.592H386.899ZM386.899 126V123H368.979V126V129H386.899V126ZM368.979 126H371.979V60.592H368.979H365.979V126H368.979Z" fill="white"/>
<path d="M497.581 91.44H519.469C518.018 101.936 513.325 110.555 505.389 117.296C497.538 123.952 488.066 127.28 476.973 127.28C464.685 127.28 454.445 123.269 446.253 115.248C438.061 107.141 433.965 97.072 433.965 85.04C433.965 73.0933 438.061 63.0667 446.253 54.96C454.53 46.8533 464.77 42.8 476.973 42.8C487.981 42.8 497.41 46.1707 505.261 52.912C513.197 59.568 517.933 68.144 519.469 78.64H497.581C496.216 73.3493 493.741 69.2533 490.157 66.352C486.573 63.4507 482.178 62 476.973 62C470.573 62 465.368 64.1333 461.357 68.4C457.432 72.5813 455.469 78.128 455.469 85.04C455.469 91.8667 457.432 97.3707 461.357 101.552C465.368 105.733 470.573 107.824 476.973 107.824C482.264 107.824 486.701 106.416 490.285 103.6C493.954 100.699 496.386 96.6453 497.581 91.44ZM570.11 42.8C582.569 42.8 592.937 46.8533 601.214 54.96C609.491 62.9813 613.63 73.008 613.63 85.04C613.63 97.072 609.491 107.141 601.214 115.248C592.937 123.269 582.569 127.28 570.11 127.28C557.651 127.28 547.283 123.269 539.006 115.248C530.729 107.141 526.59 97.072 526.59 85.04C526.59 73.008 530.729 62.9813 539.006 54.96C547.283 46.8533 557.651 42.8 570.11 42.8ZM570.11 107.824C576.681 107.824 581.971 105.733 585.982 101.552C589.993 97.3707 591.998 91.8667 591.998 85.04C591.998 78.128 589.993 72.5813 585.982 68.4C581.971 64.1333 576.681 62 570.11 62C563.539 62 558.206 64.1333 554.11 68.4C550.099 72.5813 548.094 78.128 548.094 85.04C548.094 91.8667 550.099 97.3707 554.11 101.552C558.206 105.733 563.539 107.824 570.11 107.824ZM626.076 126V44.08H646.3L682.908 92.208V44.08H703.132V126H682.908L646.3 78.128V126H626.076ZM720.201 126V44.08H740.425L777.033 92.208V44.08H797.257V126H777.033L740.425 78.128V126H720.201ZM814.326 126V44.08H874.742V63.152H835.318V75.568H870.902V93.872H835.318V106.928H874.742V126H814.326ZM948.456 91.44H970.344C968.893 101.936 964.2 110.555 956.264 117.296C948.413 123.952 938.941 127.28 927.848 127.28C915.56 127.28 905.32 123.269 897.128 115.248C888.936 107.141 884.84 97.072 884.84 85.04C884.84 73.0933 888.936 63.0667 897.128 54.96C905.405 46.8533 915.645 42.8 927.848 42.8C938.856 42.8 948.285 46.1707 956.136 52.912C964.072 59.568 968.808 68.144 970.344 78.64H948.456C947.091 73.3493 944.616 69.2533 941.032 66.352C937.448 63.4507 933.053 62 927.848 62C921.448 62 916.243 64.1333 912.232 68.4C908.307 72.5813 906.344 78.128 906.344 85.04C906.344 91.8667 908.307 97.3707 912.232 101.552C916.243 105.733 921.448 107.824 927.848 107.824C933.139 107.824 937.576 106.416 941.16 103.6C944.829 100.699 947.261 96.6453 948.456 91.44ZM1003.83 63.536H976.569V44.08H1051.96V63.536H1024.83V126H1003.83V63.536Z" fill="white"/>
</svg>
