<svg width="369" height="138" xmlns="http://www.w3.org/2000/svg" xmlns:xlink="http://www.w3.org/1999/xlink" xml:space="preserve" overflow="hidden"><defs><clipPath id="clip0"><rect x="171" y="193" width="369" height="138"/></clipPath></defs><g clip-path="url(#clip0)" transform="translate(-171 -193)"><path d="M27.1981 73.8133 44.7727 73.8133 60.1943 106.319 91.3679 106.319 70.8091 68.3457C76.447 65.2513 80.733 61.0254 83.6571 55.6579 83.9775 55.0771 84.268 54.4863 84.5483 53.8854 84.7687 68.4358 90.016 80.6729 100.32 90.6168 110.845 100.771 123.974 105.848 139.696 105.848 155.418 105.848 168.165 101.302 177.949 92.2191 187.733 83.1364 192.62 71.0995 192.62 56.1386 192.62 54.8568 192.57 53.4348 192.459 51.8926 192.349 50.3405 192.189 48.1774 191.979 45.3935L132.155 45.3935 132.155 67.5245 164.711 67.5245C163.529 72.3312 160.885 75.9763 156.769 78.4298 152.654 80.8932 147.116 82.1149 140.166 82.1149 131.504 82.1149 124.554 79.4412 119.317 74.0937 114.08 68.7462 111.456 61.6964 111.456 52.9241 111.456 44.1518 114.02 37.4224 119.157 32.0749 124.294 26.7274 130.973 24.0537 139.205 24.0537 145.083 24.0537 150.22 25.3154 154.596 27.8189 158.983 30.3325 161.656 33.2465 162.618 36.5612L190.046 36.5612C188.544 26.1967 183.096 17.5045 173.683 10.5047 164.29 3.50491 152.744 0 139.055 0 123.553 0 110.585 5.07711 100.16 15.2313 94.5924 20.6589 90.5267 26.7875 87.9231 33.587 87.2621 23.6131 83.6671 15.702 77.0979 9.88383 69.8077 3.42479 59.6936 0.190266 46.7655 0.190266L0 0.190266 0 106.319 27.1981 106.319 27.1981 73.8133ZM27.1981 24.2339 47.5966 24.2339C51.6823 24.2339 54.8368 25.3955 57.0499 27.7188 59.263 30.042 60.3645 33.3066 60.3645 37.5025 60.3645 41.6984 59.2329 44.7727 56.9597 47.0358 54.6966 49.299 51.5722 50.4306 47.5866 50.4306L27.1881 50.4306 27.1881 24.2339Z" fill="#FFFFFF" transform="matrix(1 0 0 1.00457 171.257 193)"/><path d="M233.807 107.591C237.893 107.591 241.718 106.88 245.293 105.448 248.868 104.016 251.973 101.983 254.636 99.319L259.844 106.058 277.148 106.058 277.148 0.410575 252.493 0.410575 252.493 33.4869C250.04 31.3439 247.266 29.7316 244.152 28.6601 241.037 27.5886 237.593 27.0479 233.817 27.0479 223.202 27.0479 214.19 30.8732 206.789 38.5339 199.389 46.1947 195.684 55.7881 195.684 67.3242 195.684 78.8604 199.379 88.4538 206.789 96.1145 214.19 103.775 223.192 107.601 233.817 107.601ZM225.225 53.9255C228.39 50.5107 232.425 48.7983 237.322 48.7983 242.219 48.7983 246.255 50.5107 249.419 53.9255 252.584 57.3503 254.166 61.8065 254.166 67.3242 254.166 72.842 252.604 77.2782 249.499 80.6429 246.385 84.0076 242.329 85.7 237.322 85.7 232.315 85.7 228.259 84.0176 225.145 80.6429 222.031 77.2782 220.479 72.8319 220.479 67.3242 220.479 61.8165 222.061 57.3503 225.225 53.9255Z" fill="#FFFFFF" transform="matrix(1 0 0 1.00457 171.257 193)"/><path d="M358.562 98.3176C365.181 93.1404 368.486 85.8101 368.486 76.3268 368.486 70.4887 367.134 65.4416 364.43 61.1957 361.726 56.9497 357.671 53.615 352.273 51.1917 356.569 48.8784 359.794 45.8442 361.947 42.0989 364.1 38.3537 365.171 33.9375 365.171 28.8704 365.171 19.9379 361.776 12.9381 354.997 7.87102 348.217 2.80392 338.924 0.260364 327.128 0.260364L280.162 0.260364 280.162 106.099 330.272 106.099C342.509 106.099 351.933 103.505 358.552 98.3276ZM307.29 22.5716 325.155 22.5716C329.01 22.5716 332.045 23.4228 334.248 25.1352 336.451 26.8476 337.552 29.1909 337.552 32.165 337.552 35.1392 336.421 37.4825 334.158 39.1949 331.895 40.9073 328.89 41.7584 325.145 41.7584L307.28 41.7584 307.28 22.5716ZM307.29 83.7673 307.29 62.7679 327.799 62.7679C331.875 62.7679 335.079 63.7092 337.392 65.5818 339.706 67.4544 340.867 70.048 340.867 73.3527 340.867 76.6573 339.736 79.2209 337.472 81.0434 335.209 82.866 331.985 83.7673 327.799 83.7673L307.29 83.7673Z" fill="#FFFFFF" transform="matrix(1 0 0 1.00457 171.257 193)"/><path d="M14.7707 128.179C15.3515 127.238 15.6319 126.137 15.6319 124.865 15.6319 122.902 15.001 121.38 13.7492 120.288 12.4975 119.197 10.745 118.646 8.52193 118.646L0.680953 118.646 0.680953 137.082 4.7166 137.082 4.7166 131.063 8.37172 131.063 11.5662 137.082 16.2027 137.082 12.2872 130.342C13.3587 129.842 14.1899 129.121 14.7607 128.179ZM10.7751 126.898C10.2644 127.368 9.55337 127.599 8.63208 127.599L4.7166 127.599 4.7166 122.211 8.63208 122.211C9.55337 122.211 10.2744 122.451 10.7751 122.912 11.2858 123.383 11.5361 124.054 11.5361 124.915 11.5361 125.776 11.2858 126.417 10.7751 126.888Z" fill="#FFFFFF" transform="matrix(1 0 0 1.00457 171.257 193)"/><path d="M19.2069 137.082 32.4855 137.082 32.4855 133.427 23.2325 133.427 23.2325 129.541 31.6143 129.541 31.6143 126.026 23.2325 126.026 23.2325 122.311 32.4855 122.311 32.4855 118.646 19.2069 118.646 19.2069 137.082Z" fill="#FFFFFF" transform="matrix(1 0 0 1.00457 171.257 193)"/><path d="M49.1288 130.633 39.8858 118.646 36.0004 118.646 36.0004 137.082 39.8858 137.082 39.8858 125.135 49.1288 137.082 53.0242 137.082 53.0242 118.646 49.1288 118.646 49.1288 130.633Z" fill="#FFFFFF" transform="matrix(1 0 0 1.00457 171.257 193)"/><path d="M63.4789 118.646 55.6479 137.082 59.8538 137.082 61.466 133.166 69.5073 133.166 71.1195 137.082 75.4957 137.082 67.6647 118.646 63.4889 118.646ZM62.9281 129.571 65.4917 123.383 68.0252 129.571 62.9281 129.571Z" fill="#FFFFFF" transform="matrix(1 0 0 1.00457 171.257 193)"/><path d="M89.6655 129.081C89.6655 130.593 89.305 131.744 88.574 132.505 87.843 133.277 86.7715 133.657 85.3495 133.657 83.9275 133.657 82.8259 133.277 82.1049 132.505 81.3839 131.734 81.0234 130.593 81.0234 129.081L81.0234 118.656 76.9878 118.656 76.9878 129.261C76.9878 131.875 77.7088 133.877 79.1508 135.279 80.5928 136.681 82.6557 137.382 85.3395 137.382 88.0232 137.382 90.0961 136.681 91.5381 135.279 92.9801 133.877 93.7012 131.875 93.7012 129.261L93.7012 118.656 89.6655 118.656 89.6655 129.081Z" fill="#FFFFFF" transform="matrix(1 0 0 1.00457 171.257 193)"/><path d="M101.642 118.646 97.6166 118.646 97.6166 137.082 110.465 137.082 110.465 133.367 101.642 133.367 101.642 118.646Z" fill="#FFFFFF" transform="matrix(1 0 0 1.00457 171.257 193)"/><path d="M109.453 122.361 115.822 122.361 115.822 137.082 119.858 137.082 119.858 122.361 126.187 122.361 126.187 118.646 109.453 118.646 109.453 122.361Z" fill="#FFFFFF" transform="matrix(1 0 0 1.00457 171.257 193)"/><path d="M151.652 126.767 141.278 126.767 141.278 130.162 147.496 130.162C147.306 131.314 146.765 132.195 145.884 132.816 145.003 133.427 143.841 133.737 142.399 133.737 140.707 133.737 139.345 133.196 138.314 132.125 137.272 131.053 136.761 129.631 136.761 127.859 136.761 126.086 137.272 124.705 138.284 123.643 139.305 122.582 140.637 122.041 142.289 122.041 143.481 122.041 144.512 122.311 145.383 122.862 146.255 123.413 146.826 124.094 147.096 124.925L151.302 124.925C150.971 123.002 149.98 121.43 148.318 120.198 146.655 118.967 144.632 118.356 142.249 118.356 139.505 118.356 137.212 119.257 135.379 121.059 133.547 122.862 132.626 125.135 132.626 127.859 132.626 130.583 133.547 132.856 135.389 134.658 137.232 136.461 139.545 137.362 142.329 137.362 145.113 137.362 147.376 136.541 149.109 134.889 150.841 133.236 151.712 131.063 151.712 128.38 151.712 128.109 151.712 127.839 151.682 127.559 151.662 127.278 151.642 127.018 151.622 126.767Z" fill="#FFFFFF" transform="matrix(1 0 0 1.00457 171.257 193)"/><path d="M154.967 137.082 168.245 137.082 168.245 133.427 159.003 133.427 159.003 129.541 167.384 129.541 167.384 126.026 159.003 126.026 159.003 122.311 168.245 122.311 168.245 118.646 154.967 118.646 154.967 137.082Z" fill="#FFFFFF" transform="matrix(1 0 0 1.00457 171.257 193)"/><path d="M171.76 137.082 185.039 137.082 185.039 133.427 175.796 133.427 175.796 129.541 184.178 129.541 184.178 126.026 175.796 126.026 175.796 122.311 185.039 122.311 185.039 118.646 171.76 118.646 171.76 137.082Z" fill="#FFFFFF" transform="matrix(1 0 0 1.00457 171.257 193)"/><path d="M192.59 118.646 188.554 118.646 188.554 137.082 201.402 137.082 201.402 133.367 192.59 133.367 192.59 118.646Z" fill="#FFFFFF" transform="matrix(1 0 0 1.00457 171.257 193)"/><path d="M208.892 126.307 204.316 118.646 199.679 118.646 206.729 130.112 206.729 137.082 210.765 137.082 210.765 130.172 217.885 118.646 213.479 118.646 208.892 126.307Z" fill="#FFFFFF" transform="matrix(1 0 0 1.00457 171.257 193)"/><path d="M232.866 118.646 225.005 118.646 225.005 137.082 232.866 137.082C235.63 137.082 237.923 136.211 239.736 134.458 241.548 132.716 242.459 130.513 242.459 127.859 242.459 125.205 241.548 123.012 239.736 121.26 237.923 119.517 235.63 118.636 232.866 118.636ZM236.821 131.855C235.81 132.866 234.488 133.367 232.866 133.367L229.031 133.367 229.031 122.361 232.866 122.361C234.498 122.361 235.82 122.862 236.821 123.873 237.833 124.885 238.334 126.207 238.334 127.859 238.334 129.511 237.833 130.843 236.821 131.845Z" fill="#FFFFFF" transform="matrix(1 0 0 1.00457 171.257 193)"/><path d="M254.206 118.366C251.442 118.366 249.139 119.267 247.306 121.069 245.474 122.872 244.552 125.145 244.552 127.869 244.552 130.593 245.464 132.886 247.286 134.679 249.109 136.471 251.412 137.372 254.196 137.372 256.98 137.372 259.283 136.471 261.105 134.679 262.928 132.886 263.839 130.613 263.839 127.869 263.839 125.125 262.918 122.872 261.085 121.069 259.253 119.267 256.95 118.366 254.186 118.366ZM258.201 132.075C257.19 133.126 255.858 133.657 254.216 133.657 252.574 133.657 251.232 133.126 250.21 132.055 249.189 130.993 248.688 129.591 248.688 127.859 248.688 126.127 249.199 124.705 250.21 123.643 251.232 122.582 252.564 122.041 254.216 122.041 255.868 122.041 257.17 122.572 258.191 123.643 259.213 124.705 259.714 126.117 259.714 127.859 259.714 129.601 259.213 131.013 258.201 132.065Z" fill="#FFFFFF" transform="matrix(1 0 0 1.00457 171.257 193)"/><path d="M283.907 127.549C284.678 127.148 285.249 126.617 285.64 125.946 286.02 125.285 286.221 124.504 286.221 123.603 286.221 122.071 285.64 120.859 284.478 119.978 283.317 119.097 281.724 118.656 279.712 118.656L271.851 118.656 271.851 137.092 280.262 137.092C282.335 137.092 283.947 136.641 285.089 135.74 286.231 134.839 286.801 133.567 286.801 131.935 286.801 130.893 286.561 130.012 286.08 129.271 285.6 128.53 284.879 127.959 283.917 127.559ZM275.866 121.991 279.441 121.991C280.282 121.991 280.943 122.171 281.414 122.542 281.885 122.912 282.115 123.413 282.115 124.064 282.115 124.715 281.885 125.225 281.414 125.586 280.943 125.946 280.282 126.137 279.441 126.137L275.866 126.137 275.866 121.991ZM281.965 133.166C281.474 133.547 280.783 133.747 279.902 133.747L275.866 133.747 275.866 129.281 279.902 129.281C280.783 129.281 281.474 129.481 281.965 129.872 282.455 130.262 282.696 130.813 282.696 131.524 282.696 132.235 282.455 132.786 281.965 133.166Z" fill="#FFFFFF" transform="matrix(1 0 0 1.00457 171.257 193)"/><path d="M304.186 128.179C304.767 127.238 305.047 126.137 305.047 124.865 305.047 122.902 304.416 121.38 303.164 120.288 301.913 119.197 300.16 118.646 297.937 118.646L290.106 118.646 290.106 137.082 294.142 137.082 294.142 131.063 297.797 131.063 300.991 137.082 305.628 137.082 301.712 130.342C302.784 129.842 303.615 129.121 304.186 128.179ZM300.2 126.898C299.689 127.368 298.978 127.599 298.057 127.599L294.142 127.599 294.142 122.211 298.057 122.211C298.978 122.211 299.699 122.451 300.2 122.912 300.711 123.383 300.961 124.054 300.961 124.915 300.961 125.776 300.711 126.417 300.2 126.888Z" fill="#FFFFFF" transform="matrix(1 0 0 1.00457 171.257 193)"/><path d="M314.761 118.646 306.93 137.082 311.135 137.082 312.748 133.166 320.789 133.166 322.401 137.082 326.777 137.082 318.946 118.646 314.771 118.646ZM314.21 129.571 316.773 123.383 319.307 129.571 314.21 129.571Z" fill="#FFFFFF" transform="matrix(1 0 0 1.00457 171.257 193)"/><path d="M337.773 126.076 336.161 125.816C334.779 125.606 333.837 125.345 333.357 125.055 332.866 124.755 332.626 124.344 332.626 123.803 332.626 123.212 332.896 122.742 333.437 122.401 333.977 122.061 334.698 121.901 335.6 121.901 336.581 121.901 337.352 122.111 337.913 122.521 338.484 122.932 338.764 123.503 338.764 124.234L342.88 124.234C342.88 122.471 342.199 121.049 340.847 119.968 339.495 118.896 337.733 118.356 335.56 118.356 333.387 118.356 331.714 118.876 330.432 119.908 329.151 120.949 328.5 122.331 328.5 124.054 328.5 125.516 329.031 126.727 330.082 127.699 331.134 128.67 332.646 129.321 334.608 129.641L336.221 129.872C337.272 130.042 338.033 130.282 338.484 130.593 338.934 130.903 339.165 131.334 339.165 131.895 339.165 132.485 338.894 132.956 338.354 133.297 337.813 133.637 337.092 133.797 336.191 133.797 335.149 133.797 334.298 133.557 333.627 133.086 332.956 132.616 332.616 132.015 332.616 131.284L328.38 131.284C328.38 133.046 329.101 134.508 330.543 135.65 331.985 136.791 333.847 137.362 336.13 137.362 338.414 137.362 340.116 136.832 341.418 135.78 342.71 134.729 343.361 133.297 343.361 131.484 343.361 130.002 342.88 128.8 341.939 127.879 340.987 126.958 339.595 126.357 337.773 126.066Z" fill="#FFFFFF" transform="matrix(1 0 0 1.00457 171.257 193)"/><path d="M346.615 118.646 350.651 118.646 350.651 137.082 346.615 137.082Z" fill="#FFFFFF" transform="matrix(1 0 0 1.00457 171.257 193)"/><path d="M359.003 118.646 354.977 118.646 354.977 137.082 367.825 137.082 367.825 133.367 359.003 133.367 359.003 118.646Z" fill="#FFFFFF" transform="matrix(1 0 0 1.00457 171.257 193)"/></g></svg>