<svg width="1436" height="1436" viewBox="0 0 1436 1436" fill="none" xmlns="http://www.w3.org/2000/svg">
<path d="M718 0C728.802 0 739.548 0.237877 750.233 0.709961L830.6 151L679 434.5L830.6 718L679 1001.5L830.6 1285L750.233 1435.29C739.548 1435.76 728.802 1436 718 1436C714.249 1436 710.506 1435.97 706.769 1435.91L787.2 1285.5L635.6 1002L787.2 718.5L635.6 435L787.2 151.5L706.238 0.0976562C710.151 0.034809 714.072 0 718 0ZM743.9 1285.4L664.449 1434.03C650.646 1433.01 636.951 1431.6 623.376 1429.82L700.6 1285.5L603.1 1103.3L581.4 1143.8L657.2 1285.5L583.475 1423.41C573.787 1421.58 564.168 1419.55 554.622 1417.33L484.1 1285.4L614 1042.4L743.9 1285.4ZM936.571 33.877C948.891 37.8098 961.068 42.0638 973.089 46.6338L917.3 151L765.7 434.5L863.2 616.7L884.9 576.2L809.1 434.4L939 191.4L1068.9 434.4L917.3 718L765.7 1001.5L863.2 1183.7L884.9 1143.2L809.1 1001.4L939 758.4L1068.9 1001.4L917.3 1285L842.286 1425.28C826.826 1427.98 811.196 1430.18 795.412 1431.87L873.9 1285L1025.6 1001.5L928.1 819.3L906.4 859.8L982.2 1001.5L852.3 1244.5L722.4 1001.5L873.9 718L1025.6 434.5L928.1 252.3L906.4 292.8L982.2 434.5L852.3 677.5L722.4 434.5L873.9 151L936.571 33.877ZM973.176 1389.33C961.125 1393.92 948.919 1398.18 936.567 1402.12L928.1 1386.3L916.338 1408.25C907.989 1410.65 899.578 1412.89 891.107 1414.99L939 1325.4L973.176 1389.33ZM743.9 151.4L592.3 435L440.7 718.5L538.2 900.7L559.9 860.2L484.1 718.4L614 475.4L743.9 718.4L592.3 1002L440.7 1285.5L503.855 1403.52C485.677 1397.85 467.808 1391.47 450.282 1384.43L397.4 1285.5L548.9 1002L700.6 718.5L603.1 536.3L581.4 576.8L657.2 718.5L527.3 961.5L397.4 718.5L548.9 435L700.6 151.5L622.871 6.24805C636.476 4.44713 650.201 3.02797 664.035 2L743.9 151.4ZM1008.6 61.2412C1020.64 66.5778 1032.51 72.2354 1044.19 78.2041L1005 151.5L1156.6 435L1005 718.5L1156.6 1002L1005 1285.5L1043.77 1358.01C1032.23 1363.9 1020.5 1369.49 1008.6 1374.76L960.6 1285L1112.2 1001.5L960.6 718L1112.2 434.5L960.6 151L1008.6 61.2412ZM354 151.5L505.6 435L354 718.5L505.6 1002L354 1285.5L392.978 1358.39C371.895 1347.67 351.412 1335.94 331.594 1323.26L310.866 1284.5L462.2 1001.5L310.6 718L462.2 434.5L310.6 151L330.781 113.258C351.082 100.232 372.082 88.2036 393.712 77.2354L354 151.5ZM1284.53 276.848C1293.2 287.976 1301.56 299.366 1309.58 311.005L1243.3 435L1091.7 718.5L1189.2 900.7L1210.9 860.2L1135.1 718.4L1265 475.4L1394.9 718.4L1243.3 1002L1091.7 1285.5L1109.98 1319.66C1099.31 1326.62 1088.44 1333.31 1077.38 1339.72L1048.4 1285.5L1199.9 1002L1351.6 718.5L1254.1 536.3L1232.4 576.8L1308.2 718.5L1178.3 961.5L1048.4 718.5L1199.9 435L1284.53 276.848ZM1309.34 1125.35C1301.29 1137 1292.91 1148.41 1284.21 1159.56L1254.1 1103.3L1232.4 1143.8L1257.85 1191.38C1223.16 1230.91 1184.2 1266.6 1141.69 1297.72L1135.1 1285.4L1265 1042.4L1309.34 1125.35ZM115.7 434.5L213.2 616.7L234.9 576.2L159.1 434.4L289 191.4L418.9 434.4L267.3 718L115.7 1001.5L213.2 1183.7L234.9 1143.2L159.1 1001.4L289 758.4L418.9 1001.4L270.311 1279.37C260.115 1271.22 250.146 1262.81 240.415 1254.14L375.6 1001.5L278.1 819.3L256.4 859.8L332.2 1001.5L211.636 1227.03C195.981 1211.46 181.04 1195.17 166.867 1178.22L72.4004 1001.5L223.9 718L375.6 434.5L278.1 252.3L256.4 292.8L332.2 434.5L202.3 677.5L72.4004 434.5L166.783 257.882C194.86 224.283 225.952 193.292 259.642 165.32L115.7 434.5ZM1435.99 722.642C1435.79 753.738 1433.61 784.366 1429.58 814.405L1329 1002.5L1354.6 1050.37C1347.78 1063.41 1340.57 1076.21 1332.99 1088.75L1286.6 1002L1435.99 722.642ZM1392.26 965.337C1387 979.669 1381.3 993.786 1375.17 1007.67L1372.4 1002.5L1392.26 965.337ZM180.6 718L45.624 970.41C39.2877 953.539 33.5656 936.368 28.4902 918.921L136.2 717.5L28.6807 516.434C33.7091 499.209 39.3658 482.252 45.624 465.589L180.6 718ZM92.9004 717.4L14.7656 863.565C10.552 843.103 7.2092 822.322 4.77734 801.264L49.5996 717.5L4.87305 633.92C7.33121 612.845 10.7024 592.049 14.9453 571.572L92.9004 717.4ZM6.2002 717.5L0.0839844 728.939C0.0296167 725.299 0 721.653 0 718C0 714.024 0.03523 710.056 0.0996094 706.096L6.2002 717.5ZM1333.27 347.715C1340.95 360.437 1348.24 373.416 1355.13 386.637L1329 435.5L1429.93 624.246C1433.78 653.76 1435.84 683.836 1435.99 714.363L1286.6 435L1333.27 347.715ZM1375.65 429.421C1382.47 444.935 1388.75 460.736 1394.48 476.802L1372.4 435.5L1375.65 429.421ZM657.2 151.5L527.3 394.5L397.4 151.5L450.941 51.3086C468.446 44.2904 486.291 37.9417 504.444 32.2939L440.7 151.5L538.2 333.7L559.9 293.2L484.1 151.4L555.112 18.5576C564.323 16.4212 573.601 14.4627 582.943 12.6846L657.2 151.5ZM1077.78 96.5137C1088.83 102.925 1099.7 109.621 1110.37 116.595L1091.7 151.5L1189.2 333.7L1210.9 293.2L1135.1 151.4L1141.99 138.502C1184.53 169.678 1223.51 205.423 1258.21 245.018L1178.3 394.5L1048.4 151.5L1077.78 96.5137ZM795.437 4.12793C811.232 5.82179 826.874 8.03001 842.347 10.7314L863.2 49.7002L879.997 18.3506C886.384 19.8236 892.739 21.3842 899.06 23.0264L852.3 110.5L795.437 4.12793Z" fill="url(#paint0_radial_478_52)" fill-opacity="0.2"/>
<defs>
<radialGradient id="paint0_radial_478_52" cx="0" cy="0" r="1" gradientUnits="userSpaceOnUse" gradientTransform="translate(718 718) rotate(90) scale(718 718)">
<stop/>
<stop offset="1" stop-opacity="0"/>
</radialGradient>
</defs>
</svg>
